<?xml version="1.0" encoding="utf-8"?>
<!-- Generator: Adobe Illustrator 15.0.0, SVG Export Plug-In . SVG Version: 6.00 Build 0)  -->
<!DOCTYPE svg PUBLIC "-//W3C//DTD SVG 1.1//EN" "http://www.w3.org/Graphics/SVG/1.1/DTD/svg11.dtd">
<svg version="1.1" id="Layer_1" xmlns="http://www.w3.org/2000/svg" xmlns:xlink="http://www.w3.org/1999/xlink" x="0px" y="0px"
	 width="290px" height="233px" viewBox="0 0 290 233" enable-background="new 0 0 290 233" xml:space="preserve">
<g transform="translate(0.000000,233.000000) scale(0.100000,-0.100000)">
	<g>
		<path fill="#FFD060" d="M464.746,1518.96c-151.826-16.289-278.242-107.783-305.664-221.797
			c-6.353-26.343-7.021-71.045-1.67-97.383c11.704-56.831,55.85-117.827,115.044-158.726c9.36-6.23,17.388-11.777,17.72-12.461
			c3.682-2.793-23.408-46.113-44.81-71.748c-25.752-31.191-29.766-41.934-19.399-52.334c6.357-6.934,8.364-6.934,38.794-0.342
			c48.159,10.391,106.348,35,145.811,61.338c16.387,11.094,19.395,11.777,33.774,9.355c56.855-9.355,133.438-6.23,189.619,7.617
			c126.079,30.85,222.729,113.33,246.807,210.02c7.021,27.378,6.689,75.898,0,104.663c-23.745,99.111-123.071,182.983-252.49,213.13
			C579.79,1521.733,520.928,1524.853,464.746,1518.96z M610.225,1443.755c133.101-30.493,221.724-121.987,209.014-215.21
			c-10.029-73.818-74.912-137.93-171.226-169.814c-65.215-21.484-132.432-26.338-200.322-14.902l-35.449,6.23l-26.084-18.359
			c-14.717-10.059-26.753-17.676-27.422-16.973c-0.669,0.684,2.676,10.039,7.358,21.133c4.678,11.094,8.359,20.449,8.359,21.133
			c0,0.352-14.048,9.355-30.771,19.766c-62.534,38.115-90.957,66.191-110.02,108.12c-22.407,49.902-18.73,95.303,12.705,144.517
			c38.125,59.951,117.383,104.653,214.365,120.6C491.836,1454.844,576.113,1451.382,610.225,1443.755z"/>
		<path fill="#FFD060" d="M943.974,1319.687c7.695-27.378,9.702-42.28,9.702-72.432c-0.337-82.822-28.76-149.717-90.63-213.467
			c-34.448-35.361-61.533-55.801-103.003-77.295c-67.217-35.01-141.46-53.711-226.738-57.188l-53.511-2.07l21.738-12.48
			c79.927-46.084,193.633-64.805,293.623-48.516c15.718,2.432,18.062,1.738,34.785-9.004
			c42.134-28.066,90.293-48.867,139.785-60.313c34.785-7.959,38.125-7.959,44.814-1.035c10.371,10.391,6.353,21.143-19.395,52.334
			c-21.406,25.645-48.496,68.965-44.814,71.738c0.332,0.693,8.696,6.24,17.725,12.471
			c60.195,41.934,104.346,103.623,115.376,162.188c5.684,30.156,2.681,83.525-6.011,109.517
			c-17.065,48.516-57.529,100.845-103.345,133.076C947.324,1325.928,941.636,1328.349,943.974,1319.687z"/>
	</g>
</g>
<text transform="matrix(1 0 0 1 122 128.7344)" font-family="'ScriptMTBold'" font-size="40">CitaMe</text>
</svg>
